<svg width="66" height="66" viewBox="0 0 66 66" fill="none" xmlns="http://www.w3.org/2000/svg">
<path fill-rule="evenodd" clip-rule="evenodd" d="M52.3599 28.8967L53.9828 26.0855C54.7485 24.7592 56.4549 24.3019 57.7812 25.0678L58.7444 25.6239C60.0707 26.3896 60.5279 28.0959 59.7621 29.4222L58.1392 32.2333L52.3599 28.8967ZM7.11394 2.0625C6.42687 2.0625 5.86652 2.62286 5.86652 3.30993V62.6901C5.86652 63.3771 6.42687 63.9375 7.11394 63.9375H52.3589C53.0459 63.9375 53.6063 63.3771 53.6063 62.6901V44.2093L47.1466 55.3978L41.2753 58.7876C40.2715 59.3671 39.0947 59.0896 38.3988 58.333H12.3371C11.7676 58.333 11.3058 57.8713 11.3058 57.3018C11.3058 56.7323 11.7676 56.2705 12.3371 56.2705H37.7952V51.3898H12.3371C11.7676 51.3898 11.3058 50.928 11.3058 50.3585C11.3058 49.789 11.7676 49.3273 12.3371 49.3273H38.1829L41.0009 44.4464H12.3371C11.7676 44.4464 11.3058 43.9846 11.3058 43.4151C11.3058 42.8456 11.7676 42.3839 12.3371 42.3839H42.1917L45.0097 37.503H12.3371C11.7676 37.503 11.3058 37.0412 11.3058 36.4717C11.3058 35.9022 11.7676 35.4405 12.3371 35.4405H46.2005L52.197 25.0543C52.5604 24.4249 53.0459 23.9082 53.6064 23.516V11.8596H46.4952C45.0133 11.8596 43.809 10.6554 43.809 9.17348V2.0625H7.11394ZM40.3719 49.6605L46.1513 52.9972L57.1082 34.0194L51.3288 30.6827L40.3719 49.6605ZM44.608 54.4822L40.2441 57.0017C40.0727 57.1007 39.8574 56.9763 39.8574 56.7784V51.7395L44.608 54.4822ZM15.4682 26.3301C15.1659 26.3301 14.9398 26.0599 14.9932 25.7624C15.6725 21.9737 18.9849 19.0984 22.969 19.0984C26.9531 19.0984 30.2654 21.9736 30.9448 25.7623C30.9982 26.0598 30.7721 26.33 30.4698 26.33L15.4682 26.3301ZM22.9692 10.0913C25.232 10.0913 27.0664 11.9256 27.0664 14.1886C27.0664 16.4514 25.2321 18.2859 22.9692 18.2859C20.7063 18.2859 18.8719 16.4514 18.8719 14.1886C18.8719 11.9256 20.7063 10.0913 22.9692 10.0913ZM45.8715 2.17065C46.0039 2.23111 46.126 2.31696 46.2369 2.42782L53.2408 9.43181C53.3518 9.5428 53.4376 9.66475 53.4981 9.79713H46.4952C46.1517 9.79713 45.8715 9.51702 45.8715 9.17348V2.17065ZM33.3434 30.2806H12.5948C11.8858 30.2806 11.3057 29.7005 11.3057 28.9915V8.24304C11.3057 7.53405 11.8858 6.95398 12.5948 6.95398H33.3434C34.0524 6.95398 34.6325 7.53405 34.6325 8.24304V28.9915C34.6325 29.7005 34.0524 30.2806 33.3434 30.2806ZM39.1631 16.6726C38.5936 16.6726 38.1319 16.2109 38.1319 15.6414C38.1319 15.0718 38.5936 14.6101 39.1631 14.6101H47.1357C47.7052 14.6101 48.167 15.0718 48.167 15.6414C48.167 16.2109 47.7052 16.6726 47.1357 16.6726H39.1631ZM39.1631 23.616C38.5936 23.616 38.1319 23.1543 38.1319 22.5848C38.1319 22.0153 38.5936 21.5535 39.1631 21.5535H47.1357C47.7052 21.5535 48.167 22.0153 48.167 22.5848C48.167 23.1543 47.7052 23.616 47.1357 23.616H39.1631ZM39.1631 30.5595C38.5936 30.5595 38.1319 30.0978 38.1319 29.5283C38.1319 28.9588 38.5936 28.497 39.1631 28.497H47.1357C47.7052 28.497 48.167 28.9588 48.167 29.5283C48.167 30.0978 47.7052 30.5595 47.1357 30.5595H39.1631Z" fill="white"/>
</svg>
