<svg width="67" height="66" viewBox="0 0 67 66" fill="none" xmlns="http://www.w3.org/2000/svg">
<g clip-path="url(#clip0_3_161)">
<path d="M49.8074 12.8906L38.0494 1.13232V12.8906H49.8074Z" fill="#2A9294"/>
<path d="M31.8619 35.5781C31.8619 34.5103 32.7277 33.6445 33.7955 33.6445H50.9401V16.7578H36.1158C35.048 16.7578 34.1823 15.8921 34.1823 14.8242V0H7.75647C3.84713 0 0.666626 3.1805 0.666626 7.08984V58.9102C0.666626 62.8195 3.84713 66 7.75647 66H43.8502C47.7596 66 50.9401 62.8195 50.9401 58.9102V37.5117H33.7955C32.7277 37.5117 31.8619 36.646 31.8619 35.5781ZM10.3346 22.043H32.2487C33.3165 22.043 34.1823 22.9087 34.1823 23.9766C34.1823 25.0444 33.3165 25.9102 32.2487 25.9102H10.3346C9.26674 25.9102 8.401 25.0444 8.401 23.9766C8.401 22.9087 9.26674 22.043 10.3346 22.043ZM10.3346 29.7773H27.0924C28.1603 29.7773 29.026 30.6431 29.026 31.7109C29.026 32.7788 28.1603 33.6445 27.0924 33.6445H10.3346C9.26674 33.6445 8.401 32.7788 8.401 31.7109C8.401 30.6431 9.26674 29.7773 10.3346 29.7773ZM10.3346 37.5117H27.0924C28.1603 37.5117 29.026 38.3775 29.026 39.4453C29.026 40.5132 28.1603 41.3789 27.0924 41.3789H10.3346C9.26674 41.3789 8.401 40.5132 8.401 39.4453C8.401 38.3775 9.26674 37.5117 10.3346 37.5117ZM32.2487 49.1133H10.3346C9.26674 49.1133 8.401 48.2475 8.401 47.1797C8.401 46.1118 9.26674 45.2461 10.3346 45.2461H32.2487C33.3165 45.2461 34.1823 46.1118 34.1823 47.1797C34.1823 48.2475 33.3165 49.1133 32.2487 49.1133Z" fill="#2A9294"/>
<path d="M66.1002 34.2109L58.3658 26.4766C57.6108 25.7214 56.3865 25.7214 55.6313 26.4766C54.8762 27.2317 54.8762 28.4559 55.6313 29.2111L60.0649 33.6445H50.9401V37.5117H60.0649L55.6313 41.9453C54.8762 42.7005 54.8762 43.9247 55.6313 44.6798C56.0089 45.0574 56.5038 45.2461 56.9987 45.2461C57.4935 45.2461 57.9884 45.0574 58.3658 44.6797L66.1002 36.9453C66.8555 36.1903 66.8555 34.9661 66.1002 34.2109Z" fill="#2A9294"/>
</g>
<defs>
<clipPath id="clip0_3_161">
<rect width="66" height="66" fill="white" transform="translate(0.666626)"/>
</clipPath>
</defs>
</svg>
