<svg width="147" height="32" viewBox="0 0 147 32" fill="none" xmlns="http://www.w3.org/2000/svg">
<g clip-path="url(#clip0_3_400)">
<path d="M67.5821 6.28394H64V22.4472H73.9164V19.2801H67.5821V6.28394Z" fill="#222222"/>
<path d="M74.2588 16.9648C74.2588 20.4159 76.5741 22.7093 80.0688 22.7093C83.5417 22.7093 85.857 20.4159 85.857 16.9648C85.857 13.5137 83.5417 11.1984 80.0688 11.1984C76.5741 11.1984 74.2588 13.5137 74.2588 16.9648ZM77.6443 16.9429C77.6443 15.3048 78.6054 14.2127 80.0688 14.2127C81.5104 14.2127 82.4715 15.3048 82.4715 16.9429C82.4715 18.603 81.5104 19.6951 80.0688 19.6951C78.6054 19.6951 77.6443 18.603 77.6443 16.9429Z" fill="#222222"/>
<path d="M86.3982 16.7901C86.3982 20.0882 88.5388 22.3161 91.5748 22.3161C93.0383 22.3161 94.3051 21.7919 94.9385 20.9401V22.4472C94.9385 23.9543 93.9993 24.959 92.3393 24.959C90.854 24.959 89.8274 24.2601 89.7619 23.0151H86.3545C86.6603 26.0075 88.9756 28.0169 92.1427 28.0169C95.8777 28.0169 98.2367 25.5925 98.2367 21.7482V11.5261H95.2006L95.0259 12.64C94.4143 11.7445 93.1256 11.1548 91.6404 11.1548C88.5824 11.1548 86.3982 13.4482 86.3982 16.7901ZM89.8056 16.7027C89.8056 15.13 90.854 14.0816 92.1864 14.0816C93.7372 14.0816 94.873 15.1082 94.873 16.7027C94.873 18.2972 93.759 19.3893 92.2082 19.3893C90.8759 19.3893 89.8056 18.2972 89.8056 16.7027Z" fill="#222222"/>
<path d="M99.2166 16.9648C99.2166 20.4159 101.532 22.7093 105.027 22.7093C108.5 22.7093 110.815 20.4159 110.815 16.9648C110.815 13.5137 108.5 11.1984 105.027 11.1984C101.532 11.1984 99.2166 13.5137 99.2166 16.9648ZM102.602 16.9429C102.602 15.3048 103.563 14.2127 105.027 14.2127C106.468 14.2127 107.429 15.3048 107.429 16.9429C107.429 18.603 106.468 19.6951 105.027 19.6951C103.563 19.6951 102.602 18.603 102.602 16.9429Z" fill="#222222"/>
<path d="M113.715 9.82239C114.763 9.82239 115.615 8.97054 115.615 7.90027C115.615 6.83 114.763 6 113.715 6C112.645 6 111.793 6.83 111.793 7.90027C111.793 8.97054 112.645 9.82239 113.715 9.82239ZM112.011 22.4472H115.397V11.5261H112.011V22.4472Z" fill="#222222"/>
<path d="M117.368 27.6893H120.688V21.3551C121.321 22.1851 122.763 22.753 124.27 22.753C127.524 22.753 129.49 20.263 129.403 16.8119C129.315 13.2953 127.284 11.1766 124.248 11.1766C122.697 11.1766 121.234 11.8537 120.622 12.8585L120.447 11.5261H117.368V27.6893ZM120.753 16.9866C120.753 15.3485 121.845 14.2564 123.418 14.2564C125.012 14.2564 126.017 15.3703 126.017 16.9866C126.017 18.603 125.012 19.7169 123.418 19.7169C121.845 19.7169 120.753 18.6248 120.753 16.9866Z" fill="#222222"/>
<path d="M129.761 18.9961C129.848 21.2022 131.596 22.7311 134.348 22.7311C136.991 22.7311 138.826 21.3332 138.826 19.0835C138.826 17.4672 137.865 16.3969 136.073 15.96L134.13 15.4795C133.431 15.3048 132.994 15.13 132.994 14.5621C132.994 13.9942 133.452 13.6229 134.13 13.6229C134.894 13.6229 135.396 14.1253 135.375 14.8679H138.411C138.323 12.5963 136.598 11.1766 134.195 11.1766C131.771 11.1766 129.958 12.6182 129.958 14.8024C129.958 16.2658 130.766 17.4672 132.928 18.0351L134.85 18.5374C135.418 18.6903 135.658 18.9524 135.658 19.3237C135.658 19.8698 135.156 20.2193 134.304 20.2193C133.321 20.2193 132.797 19.7606 132.797 18.9961H129.761Z" fill="#222222"/>
<path d="M143.974 22.7311C145.307 22.7311 146.639 22.1195 147.316 21.224L147.535 22.4472H150.702V11.5261H147.338V17.2051C147.338 18.8432 146.858 19.7387 145.307 19.7387C144.105 19.7387 143.319 19.1927 143.319 17.1614V11.5261H139.955V18.3845C139.955 20.9838 141.397 22.7311 143.974 22.7311Z" fill="#222222"/>
<path d="M0 16C0 7.16344 7.16344 0 16 0H37C45.8366 0 53 7.16344 53 16V32H16C7.16344 32 0 24.8366 0 16Z" fill="#222222"/>
<path d="M37 6H16C10.4772 6 6 10.4772 6 16C6 21.5228 10.4772 26 16 26H37C42.5228 26 47 21.5228 47 16C47 10.4772 42.5228 6 37 6Z" fill="#222222"/>
<path d="M16 21C18.7614 21 21 18.7614 21 16C21 13.2386 18.7614 11 16 11C13.2386 11 11 13.2386 11 16C11 18.7614 13.2386 21 16 21Z" fill="#222222"/>
<path d="M14 15C14.5523 15 15 14.5523 15 14C15 13.4477 14.5523 13 14 13C13.4477 13 13 13.4477 13 14C13 14.5523 13.4477 15 14 15Z" fill="white"/>
<path d="M38 21C40.7614 21 43 18.7614 43 16C43 13.2386 40.7614 11 38 11C35.2386 11 33 13.2386 33 16C33 18.7614 35.2386 21 38 21Z" fill="#222222"/>
<path d="M36 15C36.5523 15 37 14.5523 37 14C37 13.4477 36.5523 13 36 13C35.4477 13 35 13.4477 35 14C35 14.5523 35.4477 15 36 15Z" fill="white"/>
</g>
<defs>
<clipPath id="clip0_3_400">
<rect width="171" height="32" fill="white"/>
</clipPath>
</defs>
</svg>
