<svg width="134" height="36" viewBox="0 0 134 36" fill="none" xmlns="http://www.w3.org/2000/svg">
<path d="M39.0935 11.76H42.3521V24.76H39.0935V11.76ZM43.6515 19.87C43.6515 16.65 45.6818 14.72 48.7273 14.72C51.7727 14.72 53.803 16.65 53.803 19.87C53.803 23.09 51.8438 25.04 48.7273 25.04C45.6107 25.04 43.6515 23.16 43.6515 19.87ZM50.5748 19.87C50.5748 18.1 49.8744 17.06 48.7577 17.06C47.6411 17.06 46.9507 18.06 46.9507 19.87C46.9507 21.68 47.6411 22.67 48.7577 22.67C49.8744 22.67 50.5951 21.68 50.5951 19.88L50.5748 19.87ZM55.1024 25.43H58.2494C58.3926 25.7637 58.6429 26.0422 58.9618 26.2227C59.2808 26.4033 59.6509 26.4761 60.0157 26.43C61.2644 26.43 61.9141 25.77 61.9141 24.79V22.99H61.9242C61.6553 23.5505 61.2204 24.0176 60.6769 24.33C60.1333 24.6424 59.5064 24.7853 58.8788 24.74C56.4932 24.74 54.9095 22.95 54.9095 19.87C54.9095 16.79 56.4221 14.87 58.9701 14.87C59.6139 14.8361 60.2525 14.9996 60.7978 15.3381C61.3433 15.6766 61.7687 16.1734 62.0156 16.76H61.9242V14.95H65.1524V24.69C65.1524 27.04 63.0409 28.51 59.9345 28.51C57.1124 28.5 55.3054 27.23 55.1227 25.44L55.1024 25.43ZM61.9242 19.87C61.9242 18.3 61.1933 17.31 60.0361 17.31C58.8788 17.31 58.1682 18.31 58.1682 19.87C58.1682 21.43 58.8686 22.35 60.0361 22.35C61.2035 22.35 61.9242 21.5 61.9242 19.87ZM66.4417 19.87C66.4417 16.65 68.472 14.72 71.5174 14.72C74.5629 14.72 76.5932 16.65 76.5932 19.87C76.5932 23.09 74.6238 25.04 71.5174 25.04C68.411 25.04 66.462 23.16 66.462 19.87H66.4417ZM73.365 19.87C73.365 18.1 72.6544 17.06 71.5479 17.06C70.4414 17.06 69.7409 18.06 69.7409 19.87C69.7409 21.68 70.4312 22.67 71.5479 22.67C72.6645 22.67 73.3853 21.68 73.3853 19.88L73.365 19.87ZM77.9129 12.58C77.8987 12.253 77.9841 11.9293 78.1582 11.6506C78.3323 11.3718 78.5871 11.1508 78.8899 11.0159C79.1926 10.8809 79.5293 10.8383 79.8568 10.8935C80.1843 10.9486 80.4875 11.099 80.7275 11.3253C80.9675 11.5517 81.1332 11.8435 81.2035 12.1634C81.2736 12.4833 81.2451 12.8166 81.1215 13.1203C80.9978 13.4241 80.7847 13.6845 80.5096 13.868C80.2345 14.0515 79.91 14.1497 79.5777 14.15C79.3655 14.1553 79.1541 14.119 78.9561 14.0433C78.7582 13.9675 78.5774 13.8537 78.4244 13.7086C78.2714 13.5635 78.1492 13.3899 78.0649 13.1978C77.9806 13.0058 77.9358 12.7992 77.9332 12.59L77.9129 12.58ZM77.9129 14.94H81.2121V24.8H77.9636L77.9129 14.94ZM93.0792 19.87C93.0792 23.08 91.6174 24.94 89.1303 24.94C88.4936 24.9787 87.8601 24.8239 87.3155 24.4967C86.7709 24.1694 86.3414 23.6854 86.0848 23.11H86.0239V27.97H82.7653V14.97H86.0036V16.73H86.0645C86.3122 16.1433 86.7376 15.646 87.2825 15.306C87.8275 14.966 88.4657 14.7998 89.11 14.83C91.6682 14.81 93.1401 16.66 93.1401 19.88L93.0792 19.87ZM89.7597 19.87C89.7597 18.31 89.0186 17.3 87.8715 17.3C86.7244 17.3 86.0036 18.3 85.9935 19.87C85.9833 21.44 86.7244 22.43 87.8715 22.43C89.0186 22.43 89.8206 21.5 89.8206 19.88L89.7597 19.87ZM98.6423 14.71C101.373 14.71 103.068 15.98 103.089 18.02H100.114C100.114 17.31 99.5153 16.87 98.622 16.87C97.7286 16.87 97.3023 17.21 97.3023 17.72C97.3023 18.23 97.6779 18.39 98.4291 18.54L100.52 18.96C102.551 19.38 103.363 20.18 103.363 21.67C103.363 23.67 101.485 25.03 98.693 25.03C95.9014 25.03 94.0842 23.71 93.9523 21.7H97.1094C97.2008 22.43 97.7895 22.86 98.7438 22.86C99.698 22.86 100.145 22.56 100.145 22.03C100.145 21.5 99.8401 21.41 99.0585 21.25L97.1703 20.86C95.2111 20.45 94.1857 19.44 94.1857 17.93C94.2467 15.97 95.9521 14.72 98.7032 14.72L98.6423 14.71ZM114.276 24.79H111.118V22.94H111.058C110.881 23.5571 110.496 24.0964 109.966 24.469C109.436 24.8417 108.794 25.0254 108.144 24.99C107.654 25.0057 107.164 24.9191 106.711 24.7357C106.257 24.5524 105.847 24.2765 105.509 23.9262C105.17 23.5758 104.911 23.1589 104.747 22.7029C104.584 22.2469 104.52 21.7619 104.561 21.28V14.95H107.819V20.59C107.819 21.75 108.438 22.38 109.454 22.38C109.692 22.3782 109.927 22.3261 110.143 22.2273C110.359 22.1284 110.551 21.985 110.705 21.8068C110.861 21.6286 110.975 21.4197 111.041 21.1943C111.106 20.9688 111.123 20.7321 111.088 20.5V14.95H114.337L114.276 24.79ZM115.849 14.94H119.016V16.84H119.087C119.262 16.2313 119.638 15.697 120.153 15.3206C120.67 14.9443 121.298 14.7471 121.94 14.76C122.585 14.7048 123.227 14.8884 123.741 15.2749C124.256 15.6614 124.605 16.2231 124.722 16.85H124.864C125.067 16.2197 125.475 15.6731 126.026 15.2952C126.576 14.9172 127.239 14.7291 127.909 14.76C128.355 14.7433 128.799 14.8195 129.213 14.9836C129.627 15.1476 130 15.3959 130.31 15.7122C130.62 16.0284 130.857 16.4055 131.008 16.8187C131.161 17.2319 131.222 17.6719 131.188 18.11V24.8H127.909V18.93C127.909 17.93 127.432 17.37 126.508 17.37C126.303 17.3667 126.1 17.4071 125.912 17.4883C125.724 17.5696 125.558 17.6899 125.422 17.8409C125.286 17.992 125.184 18.1701 125.125 18.3633C125.066 18.5565 125.049 18.76 125.077 18.96V24.8H121.97V18.9C121.97 17.9 121.473 17.37 120.58 17.37C120.373 17.3684 120.168 17.4104 119.979 17.4932C119.789 17.5761 119.62 17.6978 119.482 17.8503C119.345 18.0028 119.243 18.1825 119.182 18.3773C119.12 18.5722 119.102 18.7777 119.128 18.98V24.8H115.869L115.849 14.94Z" fill="#222222"/>
<path d="M32.6473 12.61C32.6474 10.6197 32.0373 8.67573 30.8968 7.03279C29.7564 5.38985 28.1388 4.1245 26.256 3.4025C24.3732 2.68049 22.3128 2.53549 20.345 2.98648C18.377 3.43747 16.5933 4.46343 15.2273 5.92997H2.5582V32.27H29.3074V19.96C30.3573 19.035 31.1974 17.9023 31.7729 16.6358C32.3484 15.3693 32.6464 13.9976 32.6473 12.61ZM27.5005 12.61C27.5025 13.5637 27.2172 14.4966 26.6808 15.2906C26.1443 16.0845 25.3809 16.7039 24.487 17.0702C23.593 17.4366 22.6089 17.5335 21.6591 17.3486C20.7093 17.1638 19.8365 16.7055 19.1511 16.0318C18.4658 15.3581 17.9988 14.4993 17.8092 13.564C17.6196 12.6288 17.7159 11.6591 18.0859 10.7778C18.456 9.89643 19.0831 9.14306 19.8879 8.61299C20.6929 8.08292 21.6393 7.79998 22.6074 7.79997C23.9034 7.79997 25.1464 8.30642 26.0637 9.20818C26.9811 10.1099 27.4978 11.3334 27.5005 12.61ZM24.1606 27.2H7.70502V11H12.7199C12.623 11.5315 12.572 12.0701 12.5676 12.61C12.5703 15.2322 13.6289 17.7462 15.5112 19.6004C17.3934 21.4545 19.9455 22.4974 22.6074 22.5C23.1279 22.4973 23.6472 22.4538 24.1606 22.37V27.2Z" fill="#222222"/>
</svg>
