<svg width="130" height="40" viewBox="0 0 130 40" fill="none" xmlns="http://www.w3.org/2000/svg">
<path d="M19.9606 2.05127C17.6082 2.05127 15.2788 2.51558 13.1054 3.41753C10.9321 4.31958 8.95741 5.64163 7.29392 7.30829C5.63053 8.97506 4.31108 10.9536 3.41081 13.1313C2.51063 15.3089 2.04724 17.643 2.04724 20C2.04724 22.357 2.51063 24.6911 3.41081 26.8687C4.31108 29.0463 5.63053 31.0249 7.29392 32.6917C8.95741 34.3583 10.9321 35.6804 13.1054 36.5824C15.2788 37.4844 17.6082 37.9487 19.9606 37.9487V28.9743C18.7844 28.9743 17.6197 28.7422 16.533 28.2912C15.4464 27.8402 14.459 27.1792 13.6273 26.3458C12.7956 25.5125 12.1359 24.5232 11.6858 23.4343C11.2356 22.3455 11.0039 21.1786 11.0039 20C11.0039 18.8214 11.2356 17.6544 11.6858 16.5656C12.1359 15.4768 12.7956 14.4875 13.6273 13.6541C14.459 12.8208 15.4464 12.1598 16.533 11.7088C17.6197 11.2577 18.7844 11.0256 19.9606 11.0256V2.05127Z" fill="#222222"/>
<path d="M19.9607 25.9828C23.2585 25.9828 25.9318 23.3043 25.9318 20C25.9318 16.6957 23.2585 14.0171 19.9607 14.0171C16.6629 14.0171 13.9896 16.6957 13.9896 20C13.9896 23.3043 16.6629 25.9828 19.9607 25.9828Z" fill="#222222"/>
<path d="M2.04724 20C2.04724 22.357 2.51063 24.6911 3.41081 26.8687C4.31108 29.0464 5.63053 31.0249 7.29392 32.6917C8.95741 34.3584 10.9321 35.6804 13.1054 36.5825C15.2788 37.4844 17.6082 37.9487 19.9606 37.9487C22.313 37.9487 24.6425 37.4844 26.8158 36.5825C28.9892 35.6804 30.9638 34.3584 32.6273 32.6917C34.2907 31.0249 35.6102 29.0464 36.5104 26.8687C37.4106 24.6911 37.874 22.357 37.874 20H28.9173C28.9173 21.1786 28.6857 22.3455 28.2355 23.4344C27.7854 24.5232 27.1257 25.5125 26.294 26.3458C25.4623 27.1792 24.4749 27.8402 23.3882 28.2912C22.3015 28.7423 21.1369 28.9744 19.9606 28.9744C18.7844 28.9744 17.6197 28.7423 16.533 28.2912C15.4464 27.8402 14.459 27.1792 13.6273 26.3458C12.7956 25.5125 12.1359 24.5232 11.6858 23.4344C11.2356 22.3455 11.0039 21.1786 11.0039 20H2.04724Z" fill="#222222"/>
<path d="M25.9318 19.9999C25.9318 18.4132 25.3027 16.8914 24.183 15.7694C23.0631 14.6473 21.5444 14.017 19.9607 14.017C18.3771 14.017 16.8583 14.6473 15.7385 15.7694C14.6187 16.8914 13.9895 18.4132 13.9895 19.9999H19.9607H25.9318Z" fill="#222222"/>
<path d="M47.2295 13.2565H45.0047V25.6411H47.2295V13.2565Z" fill="#222222"/>
<path d="M48.6823 21.2533C48.6823 24.1195 50.66 25.8887 53.2733 25.8887C55.8866 25.8887 57.8642 24.1195 57.8642 21.2533C57.8642 18.3872 55.8866 16.6179 53.2733 16.6179C50.66 16.6179 48.6823 18.3872 48.6823 21.2533ZM50.9072 21.2533C50.9072 19.5548 51.896 18.5641 53.2733 18.5641C54.6506 18.5641 55.6394 19.5548 55.6394 21.2533C55.6394 22.9518 54.6506 23.9425 53.2733 23.9425C51.896 23.9425 50.9072 22.9518 50.9072 21.2533Z" fill="#222222"/>
<path d="M65.8148 16.8656V18.0509H65.6382C65.1085 17.2902 64.2609 16.6179 62.7424 16.6179C60.6588 16.6179 58.7871 18.3872 58.7871 21.1118C58.7871 23.8364 60.6588 25.6056 62.7424 25.6056C64.2609 25.6056 65.1085 24.9156 65.6029 24.2256H65.7795V25.0748C65.7795 26.7733 64.7907 27.5518 63.3427 27.5518C61.8948 27.5518 61.1532 26.7733 60.853 25.7648L58.8577 26.6318C59.3168 27.9586 60.6588 29.4272 63.3781 29.4272C66.1679 29.4272 68.0043 27.9586 68.0043 25.1279V16.8656H65.8148ZM63.4134 23.6948C62.0361 23.6948 61.012 22.7041 61.012 21.1118C61.012 19.5195 62.0361 18.5287 63.4134 18.5287C64.7907 18.5287 65.8148 19.5195 65.8148 21.1118C65.8148 22.7041 64.7907 23.6948 63.4134 23.6948Z" fill="#222222"/>
<path d="M69.4437 21.2533C69.4437 24.1195 71.4213 25.8887 74.0346 25.8887C76.6479 25.8887 78.6254 24.1195 78.6254 21.2533C78.6254 18.3872 76.6479 16.6179 74.0346 16.6179C71.4213 16.6179 69.4437 18.3872 69.4437 21.2533ZM71.6685 21.2533C71.6685 19.5548 72.6573 18.5641 74.0346 18.5641C75.4119 18.5641 76.4007 19.5548 76.4007 21.2533C76.4007 22.9518 75.4119 23.9425 74.0346 23.9425C72.6573 23.9425 71.6685 22.9518 71.6685 21.2533Z" fill="#222222"/>
<path d="M80.3717 14.3179C80.3717 15.2203 81.0606 15.8395 81.944 15.8395C82.8264 15.8395 83.5153 15.2203 83.5153 14.3179C83.5153 13.4157 82.8264 12.7964 81.944 12.7964C81.0606 12.7964 80.3717 13.4157 80.3717 14.3179ZM83.0557 16.8656H80.8313V25.641H83.0557V16.8656Z" fill="#222222"/>
<path d="M85.0384 29.1795H87.2638V24.5087H87.4398C87.9342 25.2164 88.7818 25.8887 90.3009 25.8887C92.3839 25.8887 94.2561 24.1195 94.2561 21.2533C94.2561 18.3872 92.3839 16.6179 90.3009 16.6179C88.7818 16.6179 87.9343 17.2902 87.405 18.051H87.2279V16.8656H85.0384V29.1795ZM89.6294 23.9779C88.2526 23.9779 87.2279 22.9872 87.2279 21.2533C87.2279 19.5195 88.2526 18.5287 89.6294 18.5287C91.0072 18.5287 92.0308 19.5195 92.0308 21.2533C92.0308 22.9872 91.0072 23.9779 89.6294 23.9779Z" fill="#222222"/>
<path d="M95.5541 19.3249C95.5541 21.0587 97.0015 21.6957 98.8379 22.0495L99.2975 22.1379C100.392 22.3502 100.886 22.6157 100.886 23.1818C100.886 23.748 100.392 24.1902 99.3681 24.1902C98.3435 24.1902 97.5143 23.7656 97.284 22.4918L95.2357 23.0225C95.5367 24.8625 97.0721 25.8887 99.3681 25.8887C101.592 25.8887 103.041 24.8449 103.041 23.0049C103.041 21.1648 101.558 20.6695 99.58 20.2803L99.1204 20.1918C98.2022 20.0148 97.7078 19.7672 97.7078 19.1834C97.7078 18.6526 98.1674 18.3164 99.015 18.3164C99.8625 18.3164 100.462 18.6702 100.674 19.6256L102.688 19.0064C102.264 17.591 100.975 16.6179 99.015 16.6179C96.9309 16.6179 95.5541 17.591 95.5541 19.3249Z" fill="#222222"/>
<path d="M113.034 25.641V16.8656H110.81V21.3948C110.81 23.0225 110.016 23.9779 108.655 23.9779C107.455 23.9779 106.784 23.3233 106.784 21.9964V16.8656H104.559V22.1025C104.559 24.2787 105.919 25.7825 107.968 25.7825C109.574 25.7825 110.316 25.0748 110.669 24.3318H110.845V25.641H113.034Z" fill="#222222"/>
<path d="M115.008 16.8657V25.641H117.233V20.4041C117.233 19.201 117.798 18.5287 118.822 18.5287C119.705 18.5287 120.235 19.0241 120.235 19.9795V25.641H122.46V20.4041C122.46 19.201 123.025 18.5287 124.049 18.5287C124.932 18.5287 125.461 19.0241 125.461 19.9795V25.641H127.687V19.8734C127.687 17.7503 126.379 16.7241 124.755 16.7241C123.325 16.7241 122.672 17.361 122.248 18.1041H122.071C121.665 17.2726 120.941 16.7241 119.67 16.7241C118.398 16.7241 117.709 17.2903 117.375 17.9626H117.198V16.8657H115.008Z" fill="#222222"/>
</svg>
