<svg xmlns="http://www.w3.org/2000/svg" width="153" height="38" viewBox="0 0 153 38" fill="none">
  <g clip-path="url(#clip0_3_355)">
    <path d="M44.5539 26.6867H55.5039V23.3502H48.4458V10.7823H44.5539V26.6867Z" fill="#222222"/>
    <path d="M61.9915 24.4624C60.4304 24.4624 59.6168 23.0832 59.6168 21.0145C59.6168 18.9459 60.4304 17.5445 61.9915 17.5445C63.5527 17.5445 64.3882 18.9459 64.3882 21.0145C64.3882 23.0832 63.5527 24.4624 61.9915 24.4624ZM62.0135 27.0426C65.6415 27.0426 68.0162 24.4401 68.0162 21.0145C68.0162 17.589 65.6415 14.9865 62.0135 14.9865C58.4074 14.9865 55.9888 17.589 55.9888 21.0145C55.9888 24.4401 58.4074 27.0426 62.0135 27.0426Z" fill="#222222"/>
    <path d="M74.296 30.6239C75.9671 30.6239 77.4403 30.2458 78.4298 29.356C79.3313 28.533 79.9249 27.2874 79.9249 25.5746V15.2979H76.4948V16.5213H76.4508C75.7912 15.5648 74.7797 14.9642 73.2846 14.9642C70.4921 14.9642 68.5571 17.3221 68.5571 20.6587C68.5571 24.151 70.9099 26.0639 73.4385 26.0639C74.8017 26.0639 75.6593 25.5078 76.3189 24.7516H76.4069V25.886C76.4069 27.2651 75.7692 28.0659 74.252 28.0659C73.0647 28.0659 72.471 27.5543 72.2731 26.9537H68.799C69.1508 29.3338 71.1957 30.6239 74.296 30.6239ZM74.274 23.3724C72.9327 23.3724 72.0532 22.2602 72.0532 20.5475C72.0532 18.8124 72.9327 17.7002 74.274 17.7002C75.7692 17.7002 76.5608 18.9904 76.5608 20.5252C76.5608 22.1268 75.8352 23.3724 74.274 23.3724Z" fill="#222222"/>
    <path d="M86.978 24.4624C85.4168 24.4624 84.6032 23.0832 84.6032 21.0145C84.6032 18.9459 85.4168 17.5445 86.978 17.5445C88.5391 17.5445 89.3746 18.9459 89.3746 21.0145C89.3746 23.0832 88.5391 24.4624 86.978 24.4624ZM86.9999 27.0426C90.628 27.0426 93.0029 24.4401 93.0029 21.0145C93.0029 17.589 90.628 14.9865 86.9999 14.9865C83.3939 14.9865 80.9752 17.589 80.9752 21.0145C80.9752 24.4401 83.3939 27.0426 86.9999 27.0426Z" fill="#222222"/>
    <path d="M94.0492 26.6867H97.6332V15.2979H94.0492V26.6867ZM94.0492 13.7185H97.6332V10.7823H94.0492V13.7185Z" fill="#222222"/>
    <path d="M99.188 30.446H102.772V25.5078H102.816C103.52 26.4643 104.553 27.0427 106.004 27.0427C108.951 27.0427 110.908 24.6848 110.908 20.9923C110.908 17.5668 109.083 14.9642 106.092 14.9642C104.553 14.9642 103.454 15.6538 102.684 16.677H102.618V15.2979H99.188V30.446ZM105.081 24.2399C103.542 24.2399 102.662 22.972 102.662 21.1258C102.662 19.2796 103.454 17.8782 105.015 17.8782C106.554 17.8782 107.28 19.1683 107.28 21.1258C107.28 23.061 106.444 24.2399 105.081 24.2399Z" fill="#222222"/>
    <path d="M116.744 27.0427C119.69 27.0427 121.867 25.7525 121.867 23.2612C121.867 20.3473 119.536 19.8356 117.557 19.502C116.128 19.2351 114.853 19.1238 114.853 18.3231C114.853 17.6113 115.534 17.2776 116.414 17.2776C117.403 17.2776 118.085 17.589 118.217 18.6122H121.515C121.339 16.3656 119.624 14.9642 116.436 14.9642C113.775 14.9642 111.576 16.2099 111.576 18.6122C111.576 21.2815 113.665 21.8154 115.622 22.149C117.117 22.4159 118.481 22.5272 118.481 23.5504C118.481 24.2844 117.799 24.6848 116.722 24.6848C115.534 24.6848 114.787 24.1287 114.655 22.9943H111.269C111.378 25.5078 113.445 27.0427 116.744 27.0427Z" fill="#222222"/>
    <path d="M126.734 27.0204C128.296 27.0204 129.285 26.3976 130.099 25.2854H130.165V26.6867H133.595V15.2979H130.011V21.6596C130.011 23.0165 129.263 23.9507 128.032 23.9507C126.888 23.9507 126.339 23.2612 126.339 22.0155V15.2979H122.777V22.7718C122.777 25.3076 124.14 27.0204 126.734 27.0204Z" fill="#222222"/>
    <path d="M135.154 26.6868H138.738V20.3028C138.738 18.9459 139.398 17.9894 140.519 17.9894C141.596 17.9894 142.102 18.7012 142.102 19.9246V26.6868H145.686V20.3028C145.686 18.9459 146.324 17.9894 147.467 17.9894C148.545 17.9894 149.05 18.7012 149.05 19.9246V26.6868H152.634V19.2796C152.634 16.7215 151.359 14.9642 148.809 14.9642C147.357 14.9642 146.148 15.5871 145.268 16.9662H145.224C144.653 15.7428 143.531 14.9642 142.058 14.9642C140.431 14.9642 139.354 15.7428 138.65 16.9217H138.584V15.2979H135.154V26.6868Z" fill="#222222"/>
    <path fill-rule="evenodd" clip-rule="evenodd" d="M7.92869 3.6067C6.61797 4.53386 5.43272 5.63007 4.40382 6.86407C8.60839 6.46918 13.9501 7.11399 20.1519 10.251C26.7745 13.6007 32.1073 13.714 35.8187 12.9897C35.4819 11.9583 35.0579 10.9669 34.5558 10.0245C30.3072 10.4779 24.8606 9.87782 18.513 6.66719C14.4822 4.62836 10.9292 3.78849 7.92869 3.6067ZM32.074 6.45094C28.7189 2.65868 23.8431 0.272095 18.4163 0.272095C16.8226 0.272095 15.2763 0.47795 13.8022 0.864784C15.7987 1.41588 17.9196 2.22213 20.1519 3.35127C24.7992 5.70195 28.8115 6.45882 32.074 6.45094ZM36.6122 16.6103C32.1285 17.506 25.9369 17.322 18.513 13.5669C11.5725 10.0562 6.04844 10.1004 2.32282 10.938C2.13051 10.9812 1.94274 11.0266 1.75949 11.0739C1.27172 12.1471 0.882358 13.2756 0.602989 14.4475C0.90137 14.3668 1.2097 14.2902 1.52782 14.2186C6.04765 13.2025 12.4338 13.2467 20.1519 17.1507C27.0925 20.6613 32.6165 20.6171 36.3422 19.7795C36.4698 19.7509 36.5956 19.7212 36.7193 19.6906C36.7328 19.3984 36.7396 19.1043 36.7396 18.8087C36.7396 18.0649 36.6964 17.3313 36.6122 16.6103ZM36.121 23.6025C31.6808 24.3878 25.6696 24.0864 18.513 20.4666C11.5725 16.9559 6.04844 17.0001 2.32282 17.8377C1.49584 18.0235 0.7519 18.25 0.0956409 18.489C0.0938516 18.5953 0.0929565 18.7019 0.0929565 18.8087C0.0929565 29.0461 8.29659 37.3452 18.4163 37.3452C26.8973 37.3452 34.0326 31.5163 36.121 23.6025Z" fill="#222222"/>
  </g>
  <defs>
    <clipPath id="clip0_3_355">
      <rect width="153" height="38" fill="white"/>
    </clipPath>
  </defs>
</svg>