<svg width="67" height="66" viewBox="0 0 67 66" fill="none" xmlns="http://www.w3.org/2000/svg">
<path d="M63.5427 31.8643H32.9769C32.3142 31.8643 31.7721 32.4065 31.7721 33.0692V63.6348C31.7721 64.2975 32.3142 64.8398 32.9769 64.8398H63.5427C64.2054 64.8398 64.7476 64.2977 64.7476 63.6348V33.0692C64.7476 32.4065 64.2054 31.8643 63.5427 31.8643ZM55.5585 35.598C55.5585 35.314 55.7901 35.0824 56.0741 35.0824H58.338C58.6219 35.0824 58.8536 35.314 58.8536 35.598V39.0375H55.5586V35.598H55.5585ZM46.6123 35.598C46.6123 35.314 46.8439 35.0824 47.1279 35.0824H49.3916C49.6756 35.0824 49.9072 35.314 49.9072 35.598V49.99H46.6123V35.598ZM37.9437 35.598C37.9437 35.314 38.1754 35.0824 38.4593 35.0824H40.7232C41.0072 35.0824 41.2388 35.314 41.2388 35.598V42.0577H37.9437V35.598ZM41.2387 61.1063C41.2387 61.3903 41.007 61.622 40.7231 61.622H38.4592C38.1752 61.622 37.9436 61.3903 37.9436 61.1063V49.7346H41.2387V61.1063ZM43.0443 47.1565C43.0443 47.4405 42.8126 47.6721 42.5286 47.6721H36.0988C35.8148 47.6721 35.5832 47.4405 35.5832 47.1565V44.6358C35.5832 44.3519 35.8148 44.1202 36.0988 44.1202H42.5286C42.8126 44.1202 43.0443 44.3519 43.0443 44.6358V47.1565ZM49.9072 61.1063C49.9072 61.3903 49.6756 61.622 49.3916 61.622H47.1279C46.8439 61.622 46.6123 61.3903 46.6123 61.1063V57.6669H49.9072V61.1063ZM51.9904 55.0886C51.9904 55.3726 51.7587 55.6042 51.4747 55.6042H45.0449C44.7609 55.6042 44.5293 55.3726 44.5293 55.0886V52.568C44.5293 52.284 44.7609 52.0523 45.0449 52.0523H51.4747C51.7587 52.0523 51.9904 52.284 51.9904 52.568V55.0886ZM58.8535 61.1063C58.8535 61.3903 58.6219 61.622 58.3378 61.622H56.074C55.79 61.622 55.5584 61.3903 55.5584 61.1063V46.7142H58.8533V61.1063H58.8535ZM60.9365 44.1361C60.9365 44.4201 60.7048 44.6517 60.4208 44.6517H53.991C53.707 44.6517 53.4754 44.4201 53.4754 44.1361V41.6156C53.4754 41.3316 53.707 41.1 53.991 41.1H60.4208C60.7048 41.1 60.9365 41.3316 60.9365 41.6156V44.1361ZM32.9769 29.8018C31.1799 29.8018 29.7096 31.2721 29.7096 33.0692V50.2259H3.5211C2.58369 50.2259 1.85369 49.4393 1.92382 48.5045C2.81147 36.6728 12.7701 27.2666 24.8189 27.2666C28.5782 27.2666 32.1339 28.1825 35.2742 29.8018H32.9769ZM12.4101 13.5689C12.4101 6.71576 17.9657 1.16016 24.8187 1.16016C31.6719 1.16016 37.2275 6.71576 37.2275 13.5689C37.2275 20.422 31.6719 25.9776 24.8187 25.9776C17.9657 25.9776 12.4101 20.422 12.4101 13.5689Z" fill="#2A9294"/>
</svg>
